<svg width="24" height="20" viewBox="0 0 24 20" fill="none" xmlns="http://www.w3.org/2000/svg">
<g id="Vector">
<path d="M12.3366 0.492437C12.2975 0.346684 12.1767 0.23708 12.0273 0.212082C9.91991 -0.143265 7.80173 -0.0521207 5.72612 0.4859C3.66522 1.05699 1.78587 2.03651 0.139556 3.39675C0.0238149 3.49251 -0.0257333 3.64634 0.0129762 3.79094C1.5362 9.47342 3.86806 15.2947 9.61488 15.3851H9.62108C9.69153 15.3851 9.76043 15.3659 9.82082 15.3297C14.7501 12.38 13.859 6.17415 12.3366 0.492437ZM9.51617 14.6133C4.44135 14.4575 2.26471 9.12153 0.825877 3.83286C2.34136 2.62298 4.05813 1.74654 5.92741 1.22851C7.80986 0.741257 9.7345 0.642037 11.6526 0.931622C13.0515 6.23145 13.8338 11.9408 9.51617 14.6133Z" fill="black"/>
<path d="M10.7522 8.11702C9.88082 8.68273 9.53979 9.11115 8.1416 9.48611C6.73915 9.86184 6.24676 9.65993 5.19657 9.60571C4.8958 9.58725 4.68522 9.91644 4.84199 10.1837C5.60844 11.4905 6.84715 12.2589 8.08895 12.2589C8.34715 12.2589 8.60495 12.2258 8.85888 12.1574C10.3368 11.7647 11.3382 10.2714 11.3506 8.44199C11.3529 8.13586 11.0107 7.94973 10.7522 8.11702ZM8.65914 11.4144C8.65876 11.4144 8.65837 11.4144 8.65798 11.4147C7.73476 11.6636 6.72638 11.2794 5.97967 10.4422C6.60754 10.4983 7.24973 10.5222 8.34327 10.2287C9.43488 9.93606 9.97953 9.59571 10.4936 9.23421C10.2648 10.3326 9.58275 11.1686 8.65914 11.4144Z" fill="black"/>
<path d="M11.7517 5.08349C11.1292 4.08398 10.3662 3.72287 9.42172 3.97515C8.47721 4.22781 7.99915 4.92197 7.96005 6.09723C7.94611 6.52219 8.42302 6.78293 8.77527 6.54488C9.48211 6.06762 10.3639 5.81611 11.2689 5.8761C11.6824 5.91456 11.9804 5.45115 11.7517 5.08349ZM8.78611 5.64343C8.99708 4.61508 10.1378 4.34165 10.8106 5.10195C10.1131 5.13041 9.42637 5.30808 8.78611 5.64343Z" fill="black"/>
<path d="M6.12522 7.25365C6.5487 7.28557 6.83283 6.82369 6.60754 6.46104C5.98509 5.46153 5.22251 5.10003 4.27761 5.35231C3.3331 5.60536 2.85503 6.29952 2.81594 7.47478C2.802 7.89973 3.2789 8.16048 3.63116 7.92242C4.34574 7.43978 5.23838 7.1925 6.12522 7.25365ZM3.64161 7.02137C3.84754 6.01724 4.98444 5.70958 5.66651 6.47988C4.96896 6.50834 4.28187 6.68602 3.64161 7.02137Z" fill="black"/>
<path d="M23.8612 8.01357C22.2187 6.65256 20.339 5.67228 18.2684 5.09849C17.0676 4.78699 15.8274 4.62585 14.5829 4.61893C14.5825 4.61893 14.5817 4.61893 14.5809 4.61893C14.0696 4.61893 14.0684 5.38538 14.579 5.38808C15.7589 5.39461 16.9345 5.54767 18.0671 5.84111C19.9461 6.36182 21.6632 7.23904 23.1748 8.44891C21.7364 13.736 19.5594 19.0705 14.4861 19.2282C13.1046 18.3736 12.1856 17.198 11.6793 15.6366C11.5229 15.1536 10.7851 15.387 10.9426 15.8724C11.5124 17.6287 12.6021 18.9989 14.1818 19.9446C14.2415 19.9808 14.3104 20 14.3808 20H14.387C20.9076 19.8958 22.9875 12.1366 23.987 8.40776C24.0257 8.26277 23.9765 8.10933 23.8612 8.01357Z" fill="black"/>
<path d="M16.2036 12.8142C14.7253 12.417 13.1115 13.2092 12.1852 14.7882C12.0284 15.0555 12.2394 15.3859 12.5398 15.3663C13.6 15.3113 14.0866 15.1109 15.4852 15.4862C16.8838 15.8604 17.2039 16.2769 18.0958 16.8549C18.352 17.0203 18.6965 16.8392 18.6942 16.53C18.6814 14.7013 17.6804 13.2084 16.2036 12.8142ZM15.6865 14.7432C14.6994 14.479 14.087 14.4617 13.3225 14.5294C14.0696 13.6918 15.0799 13.3088 16.0012 13.5568C16.0016 13.5572 16.002 13.5572 16.0023 13.5572C16.926 13.8033 17.6076 14.639 17.8364 15.7374C17.3223 15.3763 16.7781 15.0359 15.6865 14.7432Z" fill="black"/>
<path d="M21.4275 11.3617C21.6927 11.0321 21.4705 10.5368 21.0443 10.5183C20.1958 10.4779 19.3221 10.1445 18.6451 9.55802C18.3183 9.2769 17.8167 9.48918 17.7822 9.90683C17.682 11.0782 18.0741 11.8236 18.9818 12.187C19.9701 12.5823 20.7586 12.1954 21.4275 11.3617ZM18.549 10.4556C18.7968 10.6252 19.1072 10.8037 19.4765 10.9513C19.8474 11.0998 20.1973 11.1848 20.4954 11.2328C20.1021 11.582 19.7196 11.6524 19.2714 11.4732C18.8223 11.2936 18.5936 10.9794 18.549 10.4556Z" fill="black"/>
<path d="M14.0092 10.076C13.5199 9.93029 13.2969 10.6683 13.7893 10.8137C14.8101 11.1117 15.7074 10.749 16.283 9.51533C16.468 9.14729 16.1669 8.70388 15.7155 8.77349C14.9696 8.91963 14.3258 8.78387 14.2867 8.78233C13.8238 8.70388 13.5462 9.45803 14.2949 9.56225C14.6986 9.61955 15.064 9.6184 15.3528 9.59609C15.028 10.0657 14.591 10.2495 14.0092 10.076Z" fill="black"/>
</g>
</svg>
