<svg width="14" height="14" viewBox="0 0 14 14" fill="none" xmlns="http://www.w3.org/2000/svg">
<rect width="14" height="14" fill="#F5F5F5"/>
<g id="Afisha" clip-path="url(#clip0_0_1)">
<rect width="375" height="667" transform="translate(-244 -30)" fill="white"/>
<g id="Frame 137">
<g id="Vector">
<path d="M12.2323 0.933333H11.2V0.466667C11.2 0.342899 11.1508 0.2242 11.0633 0.136683C10.9758 0.0491665 10.8571 0 10.7333 0C10.6096 0 10.4909 0.0491665 10.4033 0.136683C10.3158 0.2242 10.2667 0.342899 10.2667 0.466667V0.933333H7.46993V0.510533C7.46993 0.386766 7.42077 0.268067 7.33325 0.18055C7.24573 0.0930332 7.12703 0.0438667 7.00327 0.0438667C6.8795 0.0438667 6.7608 0.0930332 6.67328 0.18055C6.58577 0.268067 6.5366 0.386766 6.5366 0.510533V0.933333H3.73333V0.466667C3.73333 0.342899 3.68417 0.2242 3.59665 0.136683C3.50913 0.0491665 3.39043 0 3.26667 0C3.1429 0 3.0242 0.0491665 2.93668 0.136683C2.84917 0.2242 2.8 0.342899 2.8 0.466667V0.933333H1.76773C1.29905 0.933827 0.84971 1.12023 0.518303 1.45164C0.186896 1.78304 0.000494128 2.23239 0 2.70107V12.2323C0.000494128 12.7009 0.186896 13.1503 0.518303 13.4817C0.84971 13.8131 1.29905 13.9995 1.76773 14H12.2323C12.7009 13.9995 13.1503 13.8131 13.4817 13.4817C13.8131 13.1503 13.9995 12.7009 14 12.2323V2.70107C13.9995 2.23239 13.8131 1.78304 13.4817 1.45164C13.1503 1.12023 12.7009 0.933827 12.2323 0.933333ZM13.0667 12.2323C13.0664 12.4535 12.9784 12.6656 12.822 12.822C12.6656 12.9784 12.4535 13.0664 12.2323 13.0667H1.76773C1.54651 13.0664 1.33442 12.9784 1.178 12.822C1.02157 12.6656 0.93358 12.4535 0.933333 12.2323V4.66667H13.0667V12.2323ZM13.0667 3.73333H0.933333V2.70107C0.93358 2.47985 1.02157 2.26776 1.178 2.11133C1.33442 1.9549 1.54651 1.86691 1.76773 1.86667H2.8V2.33333C2.8 2.4571 2.84917 2.5758 2.93668 2.66332C3.0242 2.75083 3.1429 2.8 3.26667 2.8C3.39043 2.8 3.50913 2.75083 3.59665 2.66332C3.68417 2.5758 3.73333 2.4571 3.73333 2.33333V1.86667H6.5366V2.3772C6.5366 2.50097 6.58577 2.61967 6.67328 2.70718C6.7608 2.7947 6.8795 2.84387 7.00327 2.84387C7.12703 2.84387 7.24573 2.7947 7.33325 2.70718C7.42077 2.61967 7.46993 2.50097 7.46993 2.3772V1.86667H10.2667V2.33333C10.2667 2.4571 10.3158 2.5758 10.4033 2.66332C10.4909 2.75083 10.6096 2.8 10.7333 2.8C10.8571 2.8 10.9758 2.75083 11.0633 2.66332C11.1508 2.5758 11.2 2.4571 11.2 2.33333V1.86667H12.2323C12.4535 1.86691 12.6656 1.9549 12.822 2.11133C12.9784 2.26776 13.0664 2.47985 13.0667 2.70107V3.73333Z" fill="black"/>
<path d="M2.91071 8.40002H3.62284C3.89963 8.39977 4.16502 8.28971 4.36074 8.09398C4.55646 7.89826 4.66653 7.63288 4.66677 7.35608V6.64395C4.66653 6.36716 4.55646 6.10177 4.36074 5.90605C4.16502 5.71033 3.89963 5.60027 3.62284 5.60002H2.91071C2.63391 5.60027 2.36853 5.71033 2.17281 5.90605C1.97708 6.10177 1.86702 6.36716 1.86677 6.64395V7.35608C1.86702 7.63288 1.97708 7.89826 2.17281 8.09398C2.36853 8.28971 2.63391 8.39977 2.91071 8.40002ZM2.80011 6.64395C2.80011 6.61462 2.81176 6.58649 2.8325 6.56575C2.85324 6.545 2.88137 6.53335 2.91071 6.53335H3.62284C3.63736 6.53335 3.65175 6.53621 3.66516 6.54177C3.67858 6.54733 3.69078 6.55548 3.70105 6.56575C3.71132 6.57602 3.71946 6.58821 3.72502 6.60163C3.73058 6.61505 3.73344 6.62943 3.73344 6.64395V7.35608C3.73344 7.37061 3.73058 7.38499 3.72502 7.39841C3.71946 7.41183 3.71132 7.42402 3.70105 7.43429C3.69078 7.44456 3.67858 7.45271 3.66516 7.45827C3.65175 7.46382 3.63736 7.46668 3.62284 7.46668H2.91071C2.88137 7.46668 2.85324 7.45503 2.8325 7.43429C2.81176 7.41355 2.80011 7.38542 2.80011 7.35608V6.64395Z" fill="black"/>
<path d="M6.64401 8.40002H7.35614C7.63294 8.39977 7.89832 8.28971 8.09404 8.09398C8.28977 7.89826 8.39983 7.63288 8.40008 7.35608V6.64395C8.39983 6.36716 8.28977 6.10177 8.09404 5.90605C7.89832 5.71033 7.63294 5.60027 7.35614 5.60002H6.64401C6.36722 5.60027 6.10183 5.71033 5.90611 5.90605C5.71039 6.10177 5.60033 6.36716 5.60008 6.64395V7.35608C5.60033 7.63288 5.71039 7.89826 5.90611 8.09398C6.10183 8.28971 6.36722 8.39977 6.64401 8.40002ZM6.53341 6.64395C6.53341 6.61462 6.54506 6.58649 6.56581 6.56575C6.58655 6.545 6.61468 6.53335 6.64401 6.53335H7.35614C7.38548 6.53335 7.41361 6.545 7.43435 6.56575C7.45509 6.58649 7.46674 6.61462 7.46674 6.64395V7.35608C7.46674 7.38542 7.45509 7.41355 7.43435 7.43429C7.41361 7.45503 7.38548 7.46668 7.35614 7.46668H6.64401C6.61468 7.46668 6.58655 7.45503 6.56581 7.43429C6.54506 7.41355 6.53341 7.38542 6.53341 7.35608V6.64395Z" fill="black"/>
<path d="M10.3773 8.40002H11.0895C11.3662 8.39977 11.6316 8.28971 11.8273 8.09398C12.0231 7.89826 12.1331 7.63288 12.1334 7.35608V6.64395C12.1331 6.36716 12.0231 6.10177 11.8273 5.90605C11.6316 5.71033 11.3662 5.60027 11.0895 5.60002H10.3773C10.1005 5.60027 9.83514 5.71033 9.63942 5.90605C9.4437 6.10177 9.33363 6.36716 9.33338 6.64395V7.35608C9.33363 7.63288 9.4437 7.89826 9.63942 8.09398C9.83514 8.28971 10.1005 8.39977 10.3773 8.40002ZM10.2667 6.64395C10.2667 6.61462 10.2784 6.58649 10.2991 6.56575C10.3199 6.545 10.348 6.53335 10.3773 6.53335H11.0895C11.1188 6.53335 11.1469 6.545 11.1677 6.56575C11.1884 6.58649 11.2001 6.61462 11.2001 6.64395V7.35608C11.2001 7.38542 11.1884 7.41355 11.1677 7.43429C11.1469 7.45503 11.1188 7.46668 11.0895 7.46668H10.3773C10.348 7.46668 10.3199 7.45503 10.2991 7.43429C10.2784 7.41355 10.2667 7.38542 10.2667 7.35608V6.64395Z" fill="black"/>
<path d="M2.91071 12.1333H3.62284C3.89963 12.1331 4.16502 12.023 4.36074 11.8273C4.55646 11.6316 4.66653 11.3662 4.66677 11.0894V10.3773C4.66653 10.1005 4.55646 9.83508 4.36074 9.63936C4.16502 9.44364 3.89963 9.33357 3.62284 9.33332H2.91071C2.63391 9.33357 2.36853 9.44364 2.17281 9.63936C1.97708 9.83508 1.86702 10.1005 1.86677 10.3773V11.0894C1.86702 11.3662 1.97708 11.6316 2.17281 11.8273C2.36853 12.023 2.63391 12.1331 2.91071 12.1333ZM2.80011 10.3773C2.80011 10.3479 2.81176 10.3198 2.8325 10.2991C2.85324 10.2783 2.88137 10.2667 2.91071 10.2667H3.62284C3.63736 10.2667 3.65175 10.2695 3.66516 10.2751C3.67858 10.2806 3.69078 10.2888 3.70105 10.2991C3.71132 10.3093 3.71946 10.3215 3.72502 10.3349C3.73058 10.3484 3.73344 10.3627 3.73344 10.3773V11.0894C3.73344 11.1039 3.73058 11.1183 3.72502 11.1317C3.71946 11.1451 3.71132 11.1573 3.70105 11.1676C3.69078 11.1779 3.67858 11.186 3.66516 11.1916C3.65175 11.1971 3.63736 11.2 3.62284 11.2H2.91071C2.88137 11.2 2.85324 11.1883 2.8325 11.1676C2.81176 11.1469 2.80011 11.1187 2.80011 11.0894V10.3773Z" fill="black"/>
<path d="M6.64401 12.1333H7.35614C7.63294 12.1331 7.89832 12.023 8.09404 11.8273C8.28977 11.6316 8.39983 11.3662 8.40008 11.0894V10.3773C8.39983 10.1005 8.28977 9.83508 8.09404 9.63936C7.89832 9.44364 7.63294 9.33357 7.35614 9.33332H6.64401C6.36722 9.33357 6.10183 9.44364 5.90611 9.63936C5.71039 9.83508 5.60033 10.1005 5.60008 10.3773V11.0894C5.60033 11.3662 5.71039 11.6316 5.90611 11.8273C6.10183 12.023 6.36722 12.1331 6.64401 12.1333ZM6.53341 10.3773C6.53341 10.3479 6.54506 10.3198 6.56581 10.2991C6.58655 10.2783 6.61468 10.2667 6.64401 10.2667H7.35614C7.38548 10.2667 7.41361 10.2783 7.43435 10.2991C7.45509 10.3198 7.46674 10.3479 7.46674 10.3773V11.0894C7.46674 11.1187 7.45509 11.1469 7.43435 11.1676C7.41361 11.1883 7.38548 11.2 7.35614 11.2H6.64401C6.61468 11.2 6.58655 11.1883 6.56581 11.1676C6.54506 11.1469 6.53341 11.1187 6.53341 11.0894V10.3773Z" fill="black"/>
</g>
</g>
</g>
<defs>
<clipPath id="clip0_0_1">
<rect width="375" height="667" fill="white" transform="translate(-244 -30)"/>
</clipPath>
</defs>
</svg>
