<svg width="20" height="20" viewBox="0 0 20 20" fill="none" xmlns="http://www.w3.org/2000/svg">
<path id="Vector" d="M17.5641 0H2.43582C1.09269 0 0 1.09269 0 2.43582V17.5641C0 18.9073 1.09269 20 2.43582 20H10.1898C10.516 20 10.7804 19.7355 10.7804 19.4094V12.2489C10.7804 11.9228 10.516 11.6583 10.1898 11.6583H8.06713V9.97736H10.1898C10.516 9.97736 10.7804 9.71295 10.7804 9.38682V6.99651C10.7804 5.70292 11.8328 4.6505 13.1264 4.6505H15.1746V6.33147H13.1264C12.7597 6.33147 12.4614 6.62987 12.4614 6.99655V9.38686C12.4614 9.71299 12.7258 9.9774 13.0519 9.9774H15.1746V11.6584H13.0519C12.7258 11.6584 12.4614 11.9228 12.4614 12.2489V19.4095C12.4614 19.7356 12.7258 20 13.0519 20H17.5641C18.9073 20 20 18.9073 20 17.5641V2.43582C20 1.09269 18.9073 0 17.5641 0ZM18.8189 17.5641C18.8189 18.256 18.256 18.8189 17.5641 18.8189H13.6424V12.8394H15.7651C16.0912 12.8394 16.3556 12.575 16.3556 12.2489V9.38686C16.3556 9.06073 16.0912 8.79631 15.7651 8.79631H13.6424V7.51256H15.7651C16.0912 7.51256 16.3556 7.24815 16.3556 6.92202V4.05999C16.3556 3.73386 16.0912 3.46945 15.7651 3.46945H13.1264C11.1815 3.46945 9.59928 5.05171 9.59928 6.99655V8.79631H7.47659C7.15045 8.79631 6.88604 9.06073 6.88604 9.38686V12.2489C6.88604 12.575 7.15045 12.8394 7.47659 12.8394H9.59928V18.8189H2.43582C1.74394 18.8189 1.18105 18.256 1.18105 17.5641V2.43582C1.18105 1.74394 1.7439 1.18105 2.43582 1.18105H17.5641C18.256 1.18105 18.8189 1.7439 18.8189 2.43582V17.5641Z" fill="black"/>
</svg>
