<svg width="20" height="20" viewBox="0 0 20 20" fill="none" xmlns="http://www.w3.org/2000/svg">
<g id="Vector">
<path d="M15.7143 20H4.28571C1.92143 20 0 18.0786 0 15.7143V4.28571C0 1.92143 1.92143 0 4.28571 0H15.7143C18.0786 0 20 1.92143 20 4.28571V15.7143C20 18.0786 18.0786 20 15.7143 20ZM4.28571 1.42857C2.70714 1.42857 1.42857 2.70714 1.42857 4.28571V15.7143C1.42857 17.2929 2.70714 18.5714 4.28571 18.5714H15.7143C17.2929 18.5714 18.5714 17.2929 18.5714 15.7143V4.28571C18.5714 2.70714 17.2929 1.42857 15.7143 1.42857H4.28571Z" fill="black"/>
<path d="M10 15C7.24286 15 5 12.7571 5 10C5 7.24286 7.24286 5 10 5C12.7571 5 15 7.24286 15 10C15 12.7571 12.7571 15 10 15ZM10 6.42857C8.02857 6.42857 6.42857 8.02857 6.42857 10C6.42857 11.9714 8.02857 13.5714 10 13.5714C11.9714 13.5714 13.5714 11.9714 13.5714 10C13.5714 8.02857 11.9714 6.42857 10 6.42857Z" fill="black"/>
<path d="M15.7143 5.71429C14.9286 5.71429 14.2857 5.07143 14.2857 4.28571C14.2857 3.5 14.9286 2.85714 15.7143 2.85714C16.5 2.85714 17.1429 3.5 17.1429 4.28571C17.1429 5.07143 16.5 5.71429 15.7143 5.71429Z" fill="black"/>
</g>
</svg>
