<svg width="14" height="14" viewBox="0 0 14 14" fill="none" xmlns="http://www.w3.org/2000/svg">
<path id="Vector" d="M12.0584 1.499C11.8495 0.641 11.1231 0 10.2605 0C9.39742 0 8.67331 0.641 8.46443 1.499H0.457308C0.175685 1.5195 -0.017347 1.7595 0.00176974 2.0355C0.0204202 2.303 0.231637 2.507 0.481553 2.499H8.46536C8.67518 3.356 9.39881 3.998 10.2605 3.998C11.1221 3.998 11.8476 3.356 12.0579 2.499H13.5234C13.7812 2.505 13.9943 2.286 13.9999 2.01C14.0055 1.7335 13.8013 1.505 13.5336 1.499H12.0584ZM6.46929 6.5C6.25994 5.641 5.5335 4.998 4.67045 4.998C3.8074 4.998 3.0833 5.641 2.87441 6.5H0.456841C0.175219 6.5205 -0.0178133 6.7605 0.00130348 7.036C0.019954 7.3035 0.231171 7.508 0.481087 7.5H2.87534C3.08516 8.357 3.8088 8.999 4.67045 8.999C5.5321 8.999 6.25761 8.357 6.46789 7.5H13.5229C13.7807 7.506 13.9938 7.287 13.9994 7.011C14.005 6.735 13.8008 6.506 13.5327 6.5H6.46929ZM7.5319 12.498C7.74125 13.3565 8.46769 14 9.33027 14C10.1929 14 10.917 13.3565 11.1263 12.498H13.5234C13.7812 12.504 13.9943 12.285 13.9999 12.009C14.0055 11.7325 13.8013 11.504 13.5336 11.498H11.1254C10.916 10.641 10.1924 9.999 9.33121 9.999C8.46955 9.999 7.74405 10.641 7.53377 11.498H0.481553C0.224177 11.492 0.0106287 11.711 0.00503359 11.987C-0.000561556 12.2635 0.203195 12.492 0.471296 12.498H7.5319Z" fill="black"/>
</svg>
