<svg width="17" height="20" viewBox="0 0 17 20" fill="none" xmlns="http://www.w3.org/2000/svg">
<g id="Vector">
<path d="M15.2095 17.5H1.79417C1.40913 17.5001 1.03429 17.3726 0.725053 17.1365C0.415817 16.9004 0.188603 16.5682 0.0770019 16.1889C-0.0345994 15.8096 -0.0246649 15.4034 0.105337 15.0304C0.235338 14.6574 0.478507 14.3373 0.798894 14.1175L1.01082 13.9719C1.26036 13.8007 1.46497 13.5687 1.6065 13.2966C1.74802 13.0244 1.82208 12.7205 1.8221 12.4119V8.125C1.8221 6.30164 2.52586 4.55295 3.77855 3.26364C5.03124 1.97433 6.73025 1.25 8.50181 1.25C10.2734 1.25 11.9724 1.97433 13.2251 3.26364C14.4778 4.55295 15.1815 6.30164 15.1815 8.125V12.4119C15.1811 12.721 15.255 13.0254 15.3966 13.298C15.5381 13.5706 15.7429 13.8029 15.9928 13.9744L16.2047 14.12C16.524 14.3402 16.7662 14.6602 16.8955 15.0327C17.0248 15.4052 17.0344 15.8107 16.9229 16.1892C16.8114 16.5678 16.5847 16.8995 16.2763 17.1355C15.9678 17.3715 15.5938 17.4993 15.2095 17.5ZM8.50181 2.5C7.05284 2.50165 5.66368 3.09482 4.6391 4.14935C3.61452 5.20389 3.0382 6.63367 3.0366 8.125V12.4119C3.03696 12.9265 2.91368 13.4332 2.67774 13.887C2.4418 14.3407 2.10051 14.7274 1.68426 15.0125L1.47294 15.1575C1.36943 15.2285 1.29086 15.3318 1.24884 15.4523C1.20682 15.5728 1.20358 15.7039 1.2396 15.8265C1.27562 15.949 1.349 16.0563 1.44887 16.1326C1.54874 16.2088 1.66981 16.25 1.79417 16.25H15.2095C15.3338 16.25 15.4549 16.2088 15.5548 16.1326C15.6546 16.0563 15.728 15.949 15.764 15.8265C15.8001 15.7039 15.7968 15.5728 15.7548 15.4523C15.7128 15.3318 15.6342 15.2285 15.5307 15.1575L15.3194 15.0125C14.9031 14.7274 14.5618 14.3407 14.3259 13.887C14.0899 13.4332 13.9667 12.9265 13.967 12.4119V8.125C13.9654 6.63367 13.3891 5.20389 12.3645 4.14935C11.34 3.09482 9.95079 2.50165 8.50181 2.5Z" fill="#606060"/>
<path d="M8.50181 20C7.69685 19.999 6.92514 19.6694 6.35594 19.0836C5.78674 18.4978 5.46655 17.7035 5.46558 16.875C5.46558 16.7092 5.52956 16.5503 5.64344 16.4331C5.75732 16.3158 5.91178 16.25 6.07283 16.25C6.23388 16.25 6.38834 16.3158 6.50222 16.4331C6.6161 16.5503 6.68008 16.7092 6.68008 16.875C6.68008 17.3723 6.87201 17.8492 7.21365 18.2008C7.55529 18.5525 8.01866 18.75 8.50181 18.75C8.98497 18.75 9.44834 18.5525 9.78998 18.2008C10.1316 17.8492 10.3236 17.3723 10.3236 16.875C10.3236 16.7092 10.3875 16.5503 10.5014 16.4331C10.6153 16.3158 10.7697 16.25 10.9308 16.25C11.0919 16.25 11.2463 16.3158 11.3602 16.4331C11.4741 16.5503 11.538 16.7092 11.538 16.875C11.5371 17.7035 11.2169 18.4978 10.6477 19.0836C10.0785 19.6694 9.30678 19.999 8.50181 20Z" fill="#606060"/>
<path d="M8.50181 2.5C8.34076 2.5 8.18631 2.43415 8.07243 2.31694C7.95855 2.19973 7.89457 2.04076 7.89457 1.875V0.625C7.89457 0.45924 7.95855 0.300269 8.07243 0.183058C8.18631 0.065848 8.34076 0 8.50181 0C8.66287 0 8.81732 0.065848 8.9312 0.183058C9.04508 0.300269 9.10906 0.45924 9.10906 0.625V1.875C9.10906 2.04076 9.04508 2.19973 8.9312 2.31694C8.81732 2.43415 8.66287 2.5 8.50181 2.5Z" fill="#606060"/>
</g>
</svg>
