<svg width="75" height="70" viewBox="0 0 75 70" fill="none" xmlns="http://www.w3.org/2000/svg">
<g id="Vector">
<path d="M17.5 70C17.1325 70 16.7625 69.9175 16.415 69.7525C15.5525 69.335 15 68.4625 15 67.5V55H7.5C3.365 55 0 51.635 0 47.5V7.5C0 3.365 3.365 0 7.5 0H67.5C71.635 0 75 3.365 75 7.5V47.5C75 51.635 71.635 55 67.5 55H37.1275L19.0625 69.4525C18.61 69.815 18.0575 70 17.5 70ZM7.5 5C6.12 5 5 6.1225 5 7.5V47.5C5 48.8775 6.12 50 7.5 50H17.5C18.8825 50 20 51.1175 20 52.5V62.3L34.6875 50.5475C35.1325 50.1925 35.68 50 36.25 50H67.5C68.88 50 70 48.8775 70 47.5V7.5C70 6.1225 68.88 5 67.5 5H7.5Z" fill="black"/>
<path d="M57.5 25H17.5C16.1175 25 15 23.88 15 22.5C15 21.12 16.1175 20 17.5 20H57.5C58.8825 20 60 21.12 60 22.5C60 23.88 58.8825 25 57.5 25Z" fill="black"/>
<path d="M37.5 35H17.5C16.1175 35 15 33.88 15 32.5C15 31.12 16.1175 30 17.5 30H37.5C38.8825 30 40 31.12 40 32.5C40 33.88 38.8825 35 37.5 35Z" fill="black"/>
</g>
</svg>
