<svg width="14" height="14" viewBox="0 0 14 14" fill="none" xmlns="http://www.w3.org/2000/svg">
<path id="Vector" d="M13.5047 2.10995C13.1313 0.709869 12.608 0 11.9492 0C11.6814 0 11.4361 0.117279 11.214 0.350449C9.98656 1.39635 8.94621 2.09126 7.94037 2.53709C6.81094 3.03761 5.548 3.27057 4.0802 3.24942C4.05862 3.24899 2.21484 3.25391 2.21484 3.25391C0.993561 3.25391 0 4.24779 0 5.46939V7.68498C0 8.90659 0.993561 9.90047 2.21484 9.90047C2.21484 9.90047 2.29976 9.90036 2.43359 9.90015V12.6602C2.43359 13.399 3.03462 14 3.77344 14H3.81306C4.39391 14 4.89261 13.6412 5.08359 13.0855L6.12158 10.0522C6.76833 10.1701 7.37181 10.3536 7.94048 10.6055C8.93788 11.0476 9.97 11.7356 11.1883 12.7706C11.21 12.7891 11.2332 12.8046 11.2572 12.8177C11.4677 13.022 11.6986 13.125 11.9492 13.125C12.608 13.125 13.1313 12.4151 13.5047 11.015C13.8241 9.81726 14 8.23602 14 6.5625C14 4.88898 13.8241 3.30774 13.5047 2.10995ZM10.7188 6.5625C10.7188 6.1093 10.732 5.664 10.7578 5.2327C11.2544 5.47452 11.5938 5.98721 11.5938 6.55951C11.5938 7.13213 11.2573 7.64525 10.7575 7.88718C10.7319 7.45747 10.7188 7.01389 10.7188 6.5625ZM0.820312 7.68498V5.46939C0.820312 4.70024 1.44591 4.07443 2.21484 4.07443H3.66406V9.07994H2.21484C1.44591 9.07994 0.820312 8.45413 0.820312 7.68498ZM4.30771 12.8193C4.23123 13.0416 4.04175 13.1797 3.81306 13.1797H3.77344C3.48697 13.1797 3.25391 12.9466 3.25391 12.6602V9.89854C3.70476 9.89737 4.13393 9.89587 4.14471 9.89395C4.54237 9.89032 4.92433 9.90602 5.29294 9.93999L4.30771 12.8193ZM8.27277 9.85561C7.14377 9.35519 5.90112 9.09863 4.48438 9.07481V4.06909C5.8992 4.04506 7.14227 3.78807 8.27277 3.28702C8.96362 2.9809 9.6642 2.56967 10.4168 2.02579C10.4091 2.05367 10.4013 2.08144 10.3937 2.10985C10.0744 3.30763 9.89844 4.88898 9.89844 6.5625C9.89844 8.23602 10.0744 9.81737 10.3937 11.015C10.4033 11.0511 10.4132 11.0865 10.423 11.1218C9.6674 10.575 8.96512 10.1624 8.27277 9.85561ZM12.7121 10.8037C12.3798 12.0499 12.0258 12.3047 11.9492 12.3047C11.8726 12.3047 11.5187 12.0499 11.1864 10.8037C11.0272 10.2071 10.906 9.50601 10.8267 8.74124C11.7595 8.43726 12.4141 7.55627 12.4141 6.55951C12.4141 6.01007 12.2151 5.47762 11.8536 5.06041C11.5776 4.74168 11.2215 4.50691 10.8274 4.3781C10.9065 3.61546 11.0276 2.91638 11.1864 2.32123C11.5187 1.07506 11.8726 0.820312 11.9492 0.820312C12.0258 0.820312 12.3798 1.07506 12.7121 2.32133C13.0136 3.45204 13.1797 4.9583 13.1797 6.5625C13.1797 8.1667 13.0136 9.67296 12.7121 10.8037Z" fill="black"/>
</svg>
