<svg width="12" height="14" viewBox="0 0 12 14" fill="none" xmlns="http://www.w3.org/2000/svg">
<g id="Vector">
<path d="M10.7361 12.25H1.26647C0.994682 12.2501 0.730086 12.1609 0.511802 11.9956C0.293518 11.8303 0.133132 11.5977 0.0543543 11.3322C-0.0244231 11.0667 -0.0174105 10.7824 0.0743554 10.5213C0.166121 10.2602 0.33777 10.0361 0.563925 9.88225L0.713522 9.78031C0.889667 9.66047 1.0341 9.49809 1.134 9.3076C1.2339 9.1171 1.28618 8.90438 1.28619 8.68831V5.6875C1.28619 4.41115 1.78296 3.18707 2.66721 2.28455C3.55146 1.38203 4.75076 0.875 6.00128 0.875C7.2518 0.875 8.4511 1.38203 9.33535 2.28455C10.2196 3.18707 10.7164 4.41115 10.7164 5.6875V8.68831C10.7161 8.90468 10.7682 9.11775 10.8682 9.30857C10.9681 9.4994 11.1127 9.66205 11.289 9.78206L11.4386 9.884C11.664 10.0381 11.8349 10.2621 11.9262 10.5229C12.0175 10.7837 12.0243 11.0675 11.9456 11.3325C11.8669 11.5975 11.7069 11.8297 11.4891 11.9949C11.2714 12.1601 11.0074 12.2495 10.7361 12.25ZM6.00128 1.75C4.97848 1.75116 3.99789 2.16637 3.27466 2.90455C2.55143 3.64272 2.14461 4.64357 2.14348 5.6875V8.68831C2.14374 9.04855 2.05672 9.40327 1.89017 9.72089C1.72362 10.0385 1.48271 10.3092 1.18889 10.5087L1.03972 10.6103C0.966658 10.6599 0.911194 10.7323 0.881532 10.8166C0.85187 10.9009 0.849584 10.9928 0.875012 11.0785C0.90044 11.1643 0.952232 11.2394 1.02273 11.2928C1.09323 11.3462 1.17869 11.375 1.26647 11.375H10.7361C10.8239 11.375 10.9093 11.3462 10.9798 11.2928C11.0503 11.2394 11.1021 11.1643 11.1276 11.0785C11.153 10.9928 11.1507 10.9009 11.121 10.8166C11.0914 10.7323 11.0359 10.6599 10.9628 10.6103L10.8137 10.5087C10.5199 10.3092 10.2789 10.0385 10.1124 9.72089C9.94584 9.40327 9.85883 9.04855 9.85908 8.68831V5.6875C9.85795 4.64357 9.45114 3.64272 8.72791 2.90455C8.00467 2.16637 7.02409 1.75116 6.00128 1.75Z" fill="black"/>
<path d="M6.00128 14C5.43307 13.9993 4.88833 13.7686 4.48655 13.3585C4.08476 12.9484 3.85874 12.3924 3.85806 11.8125C3.85806 11.6965 3.90322 11.5852 3.98361 11.5031C4.06399 11.4211 4.17302 11.375 4.2867 11.375C4.40039 11.375 4.50941 11.4211 4.5898 11.5031C4.67019 11.5852 4.71535 11.6965 4.71535 11.8125C4.71535 12.1606 4.85083 12.4944 5.09199 12.7406C5.33315 12.9867 5.66023 13.125 6.00128 13.125C6.34233 13.125 6.66941 12.9867 6.91057 12.7406C7.15173 12.4944 7.28721 12.1606 7.28721 11.8125C7.28721 11.6965 7.33238 11.5852 7.41276 11.5031C7.49315 11.4211 7.60218 11.375 7.71586 11.375C7.82954 11.375 7.93857 11.4211 8.01896 11.5031C8.09934 11.5852 8.1445 11.6965 8.1445 11.8125C8.14382 12.3924 7.9178 12.9484 7.51602 13.3585C7.11423 13.7686 6.56949 13.9993 6.00128 14Z" fill="black"/>
<path d="M6.00128 1.75C5.8876 1.75 5.77857 1.70391 5.69818 1.62186C5.6178 1.53981 5.57264 1.42853 5.57264 1.3125V0.4375C5.57264 0.321468 5.6178 0.210188 5.69818 0.128141C5.77857 0.0460936 5.8876 0 6.00128 0C6.11496 0 6.22399 0.0460936 6.30438 0.128141C6.38477 0.210188 6.42993 0.321468 6.42993 0.4375V1.3125C6.42993 1.42853 6.38477 1.53981 6.30438 1.62186C6.22399 1.70391 6.11496 1.75 6.00128 1.75Z" fill="black"/>
</g>
</svg>
