<svg width="88" height="70" viewBox="0 0 88 70" fill="none" xmlns="http://www.w3.org/2000/svg">
<g id="Vector">
<path d="M86.4361 7.54324C85.2959 6.19051 83.6992 5.36425 81.9397 5.21676L19.9692 0.0235431C18.2096 -0.123942 16.4987 0.425117 15.1507 1.56929C13.8082 2.70899 12.9861 4.30338 12.8345 6.06062L11.5878 17.8001H6.60943C2.965 17.8001 0 20.7759 0 24.4335V63.3666C0 67.0242 2.965 70 6.60943 70H68.7958C72.4404 70 75.4054 67.0242 75.4054 63.3666V57.0509L77.6121 57.2359C77.7982 57.2514 77.9833 57.2591 78.1669 57.2591C81.5645 57.2591 84.4609 54.6356 84.7486 51.1774L87.9766 12.3794C88.1234 10.6135 87.5763 8.89614 86.4361 7.54324ZM6.60943 21.2501H68.7958C70.5448 21.2501 71.9679 22.6782 71.9679 24.4335V27.9811H3.43749V24.4335C3.43749 22.6782 4.86043 21.2501 6.60943 21.2501ZM3.43749 31.4311H71.9679V38.5878H3.43749V31.4311ZM68.7958 66.55H6.60943C4.86043 66.55 3.43749 65.1219 3.43749 63.3666V42.0378H71.9679V63.3666C71.9679 65.1219 70.5448 66.55 68.7958 66.55ZM84.551 12.0922L81.323 50.8902C81.1774 52.6395 79.6407 53.9444 77.8981 53.7978L75.4054 53.5889V24.4335C75.4054 20.7759 72.4404 17.8001 68.7958 17.8001H15.0448L16.2547 6.40837C16.256 6.39526 16.2572 6.38233 16.2583 6.36904C16.4039 4.61975 17.9397 3.31497 19.6832 3.4616L81.6539 8.65481C82.4983 8.72554 83.2647 9.12211 83.8117 9.77139C84.3588 10.4207 84.6214 11.2447 84.551 12.0922Z" fill="black"/>
<path d="M64.7748 47.1664H48.2333C47.284 47.1664 46.5145 47.9387 46.5145 48.8914V59.7224C46.5145 60.6751 47.284 61.4474 48.2333 61.4474H64.7748C65.7241 61.4474 66.4936 60.6751 66.4936 59.7224V48.8914C66.4936 47.9387 65.7241 47.1664 64.7748 47.1664ZM63.0561 57.9974H49.952V50.6164H63.0561V57.9974Z" fill="black"/>
</g>
</svg>
