<svg width="12" height="14" viewBox="0 0 12 14" fill="none" xmlns="http://www.w3.org/2000/svg">
<g id="Vector">
<path d="M6 0C4.01496 0 2.4 1.65596 2.4 3.69141C2.4 5.72685 4.01496 7.38281 6 7.38281C7.98504 7.38281 9.6 5.72685 9.6 3.69141C9.6 1.65596 7.98504 0 6 0ZM6 6.5625C4.45608 6.5625 3.2 5.27453 3.2 3.69141C3.2 2.10829 4.45608 0.820312 6 0.820312C7.54392 0.820312 8.8 2.10829 8.8 3.69141C8.8 5.27453 7.54392 6.5625 6 6.5625Z" fill="black"/>
<path d="M10.4791 9.79439C9.49349 8.76824 8.18691 8.20312 6.8 8.20312H5.2C3.81312 8.20312 2.50651 8.76824 1.52091 9.79439C0.540133 10.8155 0 12.1634 0 13.5898C0 13.8164 0.179093 14 0.4 14H11.6C11.8209 14 12 13.8164 12 13.5898C12 12.1634 11.4599 10.8155 10.4791 9.79439ZM0.8176 13.1797C1.018 10.8531 2.90696 9.02344 5.2 9.02344H6.8C9.09304 9.02344 10.982 10.8531 11.1824 13.1797H0.8176Z" fill="black"/>
</g>
</svg>
