<svg width="14" height="14" viewBox="0 0 14 14" fill="none" xmlns="http://www.w3.org/2000/svg">
<g id="Vector">
<path d="M7 0C3.13111 0 0 3.13075 0 7C0 10.8688 3.13075 14 7 14C10.8689 14 14 10.8693 14 7C14 3.13111 10.8693 0 7 0ZM7 13.0233C3.67877 13.0233 0.976746 10.3213 0.976746 7C0.976746 3.67875 3.67877 0.976746 7 0.976746C10.3213 0.976746 13.0233 3.67875 13.0233 7C13.0233 10.3213 10.3213 13.0233 7 13.0233Z" fill="black"/>
<path d="M6.79287 8.8573C6.40588 8.8573 6.0926 9.17979 6.0926 9.56676C6.0926 9.94457 6.39666 10.2763 6.79287 10.2763C7.18908 10.2763 7.50233 9.94457 7.50233 9.56676C7.50233 9.17979 7.17984 8.8573 6.79287 8.8573Z" fill="black"/>
<path d="M6.91264 3.48548C5.66871 3.48548 5.09745 4.22264 5.09745 4.72019C5.09745 5.07954 5.40151 5.24541 5.65029 5.24541C6.14786 5.24541 5.94516 4.53589 6.88499 4.53589C7.34568 4.53589 7.71427 4.73862 7.71427 5.16247C7.71427 5.66002 7.19827 5.94565 6.89421 6.20364C6.62698 6.43396 6.27687 6.81177 6.27687 7.60419C6.27687 8.08331 6.40588 8.22153 6.78363 8.22153C7.2351 8.22153 7.32725 8.01883 7.32725 7.84372C7.32725 7.3646 7.33646 7.08818 7.84325 6.69197C8.09203 6.49849 8.87521 5.87191 8.87521 5.00579C8.87521 4.13968 8.09203 3.48548 6.91264 3.48548Z" fill="black"/>
</g>
</svg>
