<svg width="23" height="20" viewBox="0 0 23 20" fill="none" xmlns="http://www.w3.org/2000/svg">
<path id="Vector" d="M22.5496 0.365294C22.1796 0.0255928 21.6537 -0.087611 21.1771 0.0697939L0.953747 6.74953C0.4026 6.93156 0.0288501 7.42453 0.00158248 8.00531C-0.0256402 8.58614 0.300268 9.11209 0.831874 9.34521L5.83326 11.5378C5.85765 11.6512 7.2934 18.3235 7.34223 18.5504C7.40489 18.8417 7.55246 19.1012 7.86507 19.181C8.18128 19.2617 8.40468 19.0885 8.64061 18.9115C8.77191 18.813 12.3521 16.1269 12.3521 16.1269L16.691 19.6846C16.9437 19.8919 17.2526 20 17.5676 20C17.7175 20 17.8689 19.9755 18.0162 19.9254C18.4728 19.7703 18.8114 19.3968 18.9217 18.9265L22.9632 1.70952C23.0781 1.22002 22.9197 0.704995 22.5496 0.365294ZM8.96391 12.7942C8.96144 12.8001 8.95901 12.8067 8.95672 12.8146L8.1201 15.7434L7.18644 11.4045L13.6065 7.83039L9.1179 12.5331C9.04719 12.6072 8.99518 12.6968 8.96391 12.7942ZM9.22944 16.7788L9.9729 14.1761L11.2752 15.244L9.22944 16.7788ZM21.6482 1.39957L17.6068 18.6165C17.6048 18.6251 17.6021 18.6369 17.5824 18.6436C17.5628 18.6502 17.5532 18.6426 17.5465 18.6371L12.7987 14.7441C12.7985 14.744 12.7984 14.7439 12.7983 14.7438L10.5985 12.9401L17.6658 5.5358C17.8966 5.29396 17.9164 4.91942 17.7123 4.65452C17.5081 4.38959 17.1414 4.31392 16.8496 4.4765L6.38499 10.3023L1.37336 8.10514C1.35809 8.09848 1.34969 8.09475 1.3509 8.06886C1.35211 8.04307 1.36083 8.04015 1.37664 8.03493L21.5999 1.35523C21.6097 1.35203 21.6208 1.34834 21.6371 1.3632C21.6533 1.37814 21.6506 1.38948 21.6482 1.39957Z" fill="black"/>
</svg>
