<svg width="24" height="20" viewBox="0 0 24 20" fill="none" xmlns="http://www.w3.org/2000/svg">
<g id="Vector">
<path d="M21.5 20H2.5C1.122 20 0 18.8777 0 17.4994V15.499C0 15.2229 0.224 14.9989 0.5 14.9989H1C2.103 14.9989 3 14.1017 3 12.9984C3 11.8951 2.103 10.9979 1 10.9979H0.5C0.224 10.9979 0 10.7739 0 10.4978V8.49737C0 7.11906 1.122 5.9968 2.5 5.9968H21.5C22.878 5.9968 24 7.11906 24 8.49737V10.4978C24 10.7739 23.776 10.9979 23.5 10.9979H23C21.897 10.9979 21 11.8951 21 12.9984C21 13.5325 21.208 14.0346 21.586 14.4127C21.963 14.7908 22.465 14.9989 22.999 14.9989H23.499C23.775 14.9989 23.999 15.2229 23.999 15.499V17.4994C24 18.8777 22.878 20 21.5 20ZM1 15.9991V17.4994C1 18.3266 1.673 18.9998 2.5 18.9998H21.5C22.327 18.9998 23 18.3266 23 17.4994V15.9991C22.199 15.9991 21.445 15.687 20.879 15.1209C20.312 14.5538 20 13.7996 20 12.9984C20 11.344 21.346 9.99772 23 9.99772V8.49737C23 7.67018 22.327 6.99703 21.5 6.99703H2.5C1.673 6.99703 1 7.67018 1 8.49737V9.99772C2.654 9.99772 4 11.344 4 12.9984C4 14.6528 2.654 15.9991 1 15.9991Z" fill="#606060"/>
<path d="M8.5 7.99726C8.224 7.99726 8 7.77321 8 7.49714V6.49692C8 6.22085 8.224 5.9968 8.5 5.9968C8.776 5.9968 9 6.22085 9 6.49692V7.49714C9 7.77321 8.776 7.99726 8.5 7.99726Z" fill="#606060"/>
<path d="M8.5 16.4602C8.224 16.4602 8 16.2361 8 15.9601V14.2687C8 13.9926 8.224 13.7686 8.5 13.7686C8.776 13.7686 9 13.9916 9 14.2687V15.9611C9 16.2371 8.776 16.4602 8.5 16.4602ZM8.5 12.2292C8.224 12.2292 8 12.0052 8 11.7291V10.0367C8 9.76066 8.224 9.53661 8.5 9.53661C8.776 9.53661 9 9.76066 9 10.0367V11.7291C9 12.0052 8.776 12.2292 8.5 12.2292Z" fill="#606060"/>
<path d="M8.5 20C8.224 20 8 19.7759 8 19.4999V18.4997C8 18.2236 8.224 17.9995 8.5 17.9995C8.776 17.9995 9 18.2236 9 18.4997V19.4999C9 19.7759 8.776 20 8.5 20Z" fill="#606060"/>
<path d="M2.5 6.99703C2.297 6.99703 2.106 6.873 2.032 6.67196C1.935 6.4129 2.066 6.12483 2.325 6.02881L18.225 0.0904535C18.998 -0.199613 19.906 0.234486 20.17 1.01366L21.973 6.33588C22.061 6.59794 21.921 6.881 21.66 6.97002C21.401 7.05904 21.115 6.91801 21.026 6.65695L19.223 1.33474C19.135 1.07468 18.833 0.932646 18.574 1.02667L2.674 6.96502C2.617 6.98703 2.558 6.99703 2.5 6.99703Z" fill="#606060"/>
</g>
</svg>
