<svg width="20" height="14" viewBox="0 0 20 14" fill="none" xmlns="http://www.w3.org/2000/svg">
<g id="Vector">
<path d="M1 10.202C1.02932 10.063 1.05358 9.92325 1.08797 9.78556C1.63426 7.609 4.23862 6.53533 6.31516 7.62973C6.36548 7.65625 6.4158 7.68209 6.46358 7.70691C8.33884 5.89413 11.4663 5.85231 13.4035 7.58554C13.8256 7.32273 14.2861 7.14458 14.7868 7.05041C16.7677 6.67812 18.7458 8.02071 18.963 9.90796C19.0137 10.3489 18.9999 10.7977 18.9927 11.2427C18.9873 11.5793 18.6973 11.8513 18.3385 11.8928C18.2574 11.9023 18.1749 11.903 18.0931 11.903C17.1029 11.9037 16.1132 11.9033 15.1231 11.9033H14.8979C14.8935 11.9611 14.8881 12.0084 14.8874 12.056C14.8783 12.6343 14.4884 12.9967 13.8669 12.9987C13.1229 13.0011 12.379 12.9994 11.635 12.9994C9.83072 12.9994 8.02642 12.9994 6.22248 12.9994C5.54442 12.9994 5.2186 12.7471 5.09479 12.1124C5.03506 12.1124 4.97207 12.1124 4.90871 12.1124C3.93054 12.1124 2.952 12.1005 1.97419 12.1175C1.50429 12.1253 1.16725 11.9839 1 11.5555C1 11.1044 1 10.6532 1 10.202ZM9.99978 12.4503C11.2947 12.4503 12.5893 12.451 13.8842 12.45C14.1691 12.45 14.3042 12.3256 14.31 12.058C14.314 11.888 14.3067 11.7177 14.3085 11.5473C14.314 10.9697 14.3306 10.3924 14.1634 9.82704C13.5041 7.60152 11.016 6.3446 8.66936 7.05414C6.9867 7.56276 5.81557 8.95635 5.70624 10.6076C5.67402 11.0952 5.68814 11.5858 5.69031 12.075C5.6914 12.3276 5.83729 12.4497 6.11532 12.45C7.41026 12.451 8.70484 12.4503 9.99978 12.4503ZM13.7898 7.99148C14.6456 8.98388 14.9649 10.1092 14.8805 11.3349C14.9171 11.3488 14.9276 11.3559 14.9381 11.3559C16.0325 11.3573 17.1268 11.3583 18.2209 11.3583C18.3736 11.3583 18.4207 11.2679 18.4196 11.1407C18.4171 10.8164 18.4308 10.4914 18.4098 10.1684C18.3443 9.15728 17.8328 8.38721 16.897 7.89934C15.8645 7.36081 14.8266 7.42676 13.7901 7.99148H13.7898ZM6.08491 8.14209C6.03459 8.11217 6.00635 8.09347 5.97594 8.07783C4.30559 7.20272 2.09728 8.10095 1.67806 9.85628C1.56728 10.3204 1.60312 10.8164 1.58176 11.2981C1.57163 11.5297 1.61652 11.5626 1.8674 11.5626C2.88575 11.563 3.90447 11.5626 4.92283 11.5626C4.97967 11.5626 5.03687 11.5579 5.12556 11.5538C5.0213 10.3136 5.26096 9.16067 6.08455 8.14243L6.08491 8.14209Z" fill="black"/>
<path d="M9.90421 5.99272C8.43333 5.99816 7.22636 4.88404 7.21948 3.51459C7.21224 2.1329 8.40111 1.0113 9.8843 1.00008C11.3592 0.988864 12.5701 2.10707 12.5784 3.48773C12.5868 4.86466 11.3881 5.98728 9.90457 5.99272H9.90421ZM9.88683 5.44841C11.0457 5.45147 11.9978 4.57874 12.0028 3.50881C12.0079 2.43345 11.067 1.55187 9.91109 1.54881C8.75045 1.54575 7.80233 2.41305 7.79328 3.48603C7.78423 4.5529 8.7367 5.44535 9.88719 5.44841H9.88683Z" fill="black"/>
<path d="M2.47523 4.78034C2.4774 3.71246 3.42335 2.83973 4.57276 2.84449C5.7095 2.84925 6.64785 3.72708 6.6493 4.78748C6.65075 5.85197 5.70117 6.73422 4.55647 6.73218C3.40815 6.73014 2.47269 5.85299 2.47523 4.78068V4.78034ZM4.56697 6.18243C5.40287 6.17869 6.0679 5.55686 6.065 4.7817C6.06247 4.00859 5.38947 3.39084 4.55357 3.3939C3.72202 3.3973 3.04504 4.0283 3.0512 4.79428C3.05735 5.56536 3.73541 6.18617 4.56697 6.18243Z" fill="black"/>
<path d="M17.524 4.65693C17.5233 5.72515 16.5762 6.60333 15.4308 6.59823C14.293 6.59313 13.3539 5.71734 13.3499 4.65829C13.3459 3.59483 14.294 2.71019 15.4384 2.71053C16.5882 2.71087 17.5251 3.58497 17.524 4.65693ZM15.4387 3.25858C14.6036 3.25858 13.9342 3.87939 13.9338 4.65353C13.9338 5.42665 14.6039 6.04814 15.4391 6.04814C16.2707 6.04814 16.9484 5.42155 16.9476 4.65319C16.9469 3.88279 16.271 3.25824 15.4387 3.25858Z" fill="black"/>
<path d="M1 10.202C1.02932 10.063 1.05358 9.92325 1.08797 9.78556C1.63426 7.609 4.23862 6.53533 6.31516 7.62973C6.36548 7.65625 6.4158 7.68209 6.46358 7.70691C8.33884 5.89413 11.4663 5.85231 13.4035 7.58554C13.8256 7.32273 14.2861 7.14458 14.7868 7.05041C16.7677 6.67812 18.7458 8.02071 18.963 9.90796C19.0137 10.3489 18.9999 10.7977 18.9927 11.2427C18.9873 11.5793 18.6973 11.8513 18.3385 11.8928C18.2574 11.9023 18.1749 11.903 18.0931 11.903C17.1029 11.9037 16.1132 11.9033 15.1231 11.9033H14.8979C14.8935 11.9611 14.8881 12.0084 14.8874 12.056C14.8783 12.6343 14.4884 12.9967 13.8669 12.9987C13.1229 13.0011 12.379 12.9994 11.635 12.9994C9.83072 12.9994 8.02642 12.9994 6.22248 12.9994C5.54442 12.9994 5.2186 12.7471 5.09479 12.1124C5.03506 12.1124 4.97207 12.1124 4.90871 12.1124C3.93054 12.1124 2.952 12.1005 1.97419 12.1175C1.50429 12.1253 1.16725 11.9839 1 11.5555C1 11.1044 1 10.6532 1 10.202ZM9.99978 12.4503C11.2947 12.4503 12.5893 12.451 13.8842 12.45C14.1691 12.45 14.3042 12.3256 14.31 12.058C14.314 11.888 14.3067 11.7177 14.3085 11.5473C14.314 10.9697 14.3306 10.3924 14.1634 9.82704C13.5041 7.60152 11.016 6.3446 8.66936 7.05414C6.9867 7.56276 5.81557 8.95635 5.70624 10.6076C5.67402 11.0952 5.68814 11.5858 5.69031 12.075C5.6914 12.3276 5.83729 12.4497 6.11532 12.45C7.41026 12.451 8.70484 12.4503 9.99978 12.4503ZM13.7898 7.99148C14.6456 8.98388 14.9649 10.1092 14.8805 11.3349C14.9171 11.3488 14.9276 11.3559 14.9381 11.3559C16.0325 11.3573 17.1268 11.3583 18.2209 11.3583C18.3736 11.3583 18.4207 11.2679 18.4196 11.1407C18.4171 10.8164 18.4308 10.4914 18.4098 10.1684C18.3443 9.15728 17.8328 8.38721 16.897 7.89934C15.8645 7.36081 14.8266 7.42676 13.7901 7.99148H13.7898ZM6.08491 8.14209C6.03459 8.11217 6.00635 8.09347 5.97594 8.07783C4.30559 7.20272 2.09728 8.10095 1.67806 9.85628C1.56728 10.3204 1.60312 10.8164 1.58176 11.2981C1.57163 11.5297 1.61652 11.5626 1.8674 11.5626C2.88575 11.563 3.90447 11.5626 4.92283 11.5626C4.97967 11.5626 5.03687 11.5579 5.12556 11.5538C5.0213 10.3136 5.26096 9.16067 6.08455 8.14243L6.08491 8.14209Z" stroke="black" stroke-width="0.3"/>
<path d="M9.90421 5.99272C8.43333 5.99816 7.22636 4.88404 7.21948 3.51459C7.21224 2.1329 8.40111 1.0113 9.8843 1.00008C11.3592 0.988864 12.5701 2.10707 12.5784 3.48773C12.5868 4.86466 11.3881 5.98728 9.90457 5.99272H9.90421ZM9.88683 5.44841C11.0457 5.45147 11.9978 4.57874 12.0028 3.50881C12.0079 2.43345 11.067 1.55187 9.91109 1.54881C8.75045 1.54575 7.80233 2.41305 7.79328 3.48603C7.78423 4.5529 8.7367 5.44535 9.88719 5.44841H9.88683Z" stroke="black" stroke-width="0.3"/>
<path d="M2.47523 4.78034C2.4774 3.71246 3.42335 2.83973 4.57276 2.84449C5.7095 2.84925 6.64785 3.72708 6.6493 4.78748C6.65075 5.85197 5.70117 6.73422 4.55647 6.73218C3.40815 6.73014 2.47269 5.85299 2.47523 4.78068V4.78034ZM4.56697 6.18243C5.40287 6.17869 6.0679 5.55686 6.065 4.7817C6.06247 4.00859 5.38947 3.39084 4.55357 3.3939C3.72202 3.3973 3.04504 4.0283 3.0512 4.79428C3.05735 5.56536 3.73541 6.18617 4.56697 6.18243Z" stroke="black" stroke-width="0.3"/>
<path d="M17.524 4.65693C17.5233 5.72515 16.5762 6.60333 15.4308 6.59823C14.293 6.59313 13.3539 5.71734 13.3499 4.65829C13.3459 3.59483 14.294 2.71019 15.4384 2.71053C16.5882 2.71087 17.5251 3.58497 17.524 4.65693ZM15.4387 3.25858C14.6036 3.25858 13.9342 3.87939 13.9338 4.65353C13.9338 5.42665 14.6039 6.04814 15.4391 6.04814C16.2707 6.04814 16.9484 5.42155 16.9476 4.65319C16.9469 3.88279 16.271 3.25824 15.4387 3.25858Z" stroke="black" stroke-width="0.3"/>
</g>
</svg>
