<svg width="27" height="20" viewBox="0 0 27 20" fill="none" xmlns="http://www.w3.org/2000/svg">
<g id="Vector">
<path d="M17.6558 8.81865L11.6909 5.62674C11.3479 5.44321 10.9425 5.45006 10.6063 5.64487C10.2699 5.83988 10.0693 6.18438 10.0693 6.56674V12.8958C10.0693 13.2763 10.2687 13.6202 10.6028 13.8154C10.7773 13.9174 10.9707 13.9685 11.1646 13.9685C11.3421 13.9685 11.5201 13.9256 11.6839 13.8394L17.649 10.7025C18.0031 10.5161 18.2241 10.1561 18.2258 9.76268C18.2272 9.36923 18.0089 9.00762 17.6558 8.81865ZM11.6515 12.0996V7.36935L16.1096 9.75503L11.6515 12.0996Z" fill="black"/>
<path d="M26.8012 4.72038L26.8 4.70829C26.7771 4.49575 26.5495 2.60526 25.6098 1.6437C24.5236 0.512712 23.2921 0.375317 22.6999 0.30944C22.6509 0.304001 22.606 0.298965 22.5658 0.293727L22.5186 0.288892C18.9492 0.0350538 13.5586 0.000402917 13.5046 0.000201459L13.4999 0L13.4952 0.000201459C13.4412 0.000402917 8.05058 0.0350538 4.44902 0.288892L4.40143 0.293727C4.36312 0.298763 4.32089 0.303397 4.27495 0.308635C3.68952 0.374713 2.47129 0.512309 1.382 1.68419C0.486965 2.63548 0.228239 4.48548 0.201666 4.69338L0.198576 4.72038C0.190543 4.80882 0 6.91426 0 9.02796V11.0039C0 13.1176 0.190543 15.223 0.198576 15.3117L0.200018 15.325C0.222883 15.5341 0.450299 17.3899 1.38571 18.3519C2.40702 19.445 3.69838 19.5896 4.39299 19.6674C4.50278 19.6797 4.59733 19.6902 4.66181 19.7012L4.72422 19.7097C6.78517 19.9015 13.2469 19.996 13.5209 19.9998L13.5291 20L13.5374 19.9998C13.5914 19.9996 18.9818 19.9649 22.5512 19.7111L22.5984 19.7063C22.6435 19.7004 22.6941 19.6952 22.7498 19.6896C23.3319 19.6291 24.5435 19.5036 25.6178 18.3476C26.5128 17.3961 26.7718 15.5462 26.7981 15.3385L26.8012 15.3115C26.8093 15.2228 27 13.1176 27 11.0039V9.02796C26.9998 6.91426 26.8093 4.80902 26.8012 4.72038ZM25.4176 11.0039C25.4176 12.9602 25.2429 14.975 25.2264 15.16C25.1593 15.6694 24.8863 16.8399 24.4502 17.3035C23.7779 18.0269 23.0872 18.0986 22.5829 18.1508C22.5219 18.1571 22.4655 18.1631 22.4144 18.1693C18.962 18.4135 13.7749 18.451 13.5359 18.4524C13.268 18.4486 6.90073 18.3533 4.90261 18.1718C4.80023 18.1554 4.68962 18.143 4.57302 18.1301C3.98162 18.0638 3.17207 17.9731 2.54956 17.3035L2.53494 17.2882C2.10648 16.8516 1.84136 15.7571 1.774 15.166C1.76144 15.0262 1.58223 12.9876 1.58223 11.0039V9.02796C1.58223 7.07381 1.75649 5.06124 1.77339 4.87248C1.85352 4.27233 2.13161 3.17277 2.54956 2.72835C3.24252 1.98296 3.97318 1.90036 4.45643 1.84576C4.50257 1.84053 4.54563 1.83569 4.58538 1.83065C8.08807 1.58528 13.3124 1.54881 13.4999 1.5474C13.6874 1.54861 18.9099 1.58528 22.3815 1.83065C22.4241 1.83589 22.4706 1.84113 22.5207 1.84677C23.0178 1.90217 23.769 1.98598 24.4585 2.70519L24.4649 2.71183C24.8933 3.14839 25.1584 4.26206 25.2258 4.86502C25.2377 4.99698 25.4176 7.03997 25.4176 9.02796V11.0039Z" fill="black"/>
</g>
</svg>
